<svg xmlns="http://www.w3.org/2000/svg" xmlns:xlink="http://www.w3.org/1999/xlink" width="500" zoomAndPan="magnify" viewBox="0 0 375 374.999991" height="500" preserveAspectRatio="xMidYMid meet" version="1.0"><defs><clipPath id="ec4df13d71"><path d="M 0 47.386719 L 375 47.386719 L 375 327.886719 L 0 327.886719 Z M 0 47.386719 " clip-rule="nonzero"/></clipPath><clipPath id="4ec7e7a2fe"><path d="M 215.273438 144.589844 L 165.082031 144.589844 L 263.097656 62.769531 C 263.808594 62.179688 264.703125 61.855469 265.617188 61.855469 L 331.570312 61.855469 C 333.167969 61.855469 334.132812 62.742188 334.570312 63.265625 C 335.003906 63.792969 335.6875 64.90625 335.386719 66.472656 L 334.097656 73.183594 C 333.824219 74.617188 332.792969 75.761719 331.398438 76.179688 L 303.425781 84.582031 C 297.011719 86.503906 292.292969 91.550781 290.796875 98.078125 C 289.308594 104.597656 291.363281 111.179688 296.300781 115.691406 C 305.996094 124.539062 319.425781 138.582031 328.347656 155.238281 C 341.046875 178.96875 340.898438 201.15625 327.960938 221.363281 C 309.992188 175.539062 265.496094 144.589844 215.273438 144.589844 Z M 32.25 181.457031 L 32.007812 181.457031 C 22.519531 181.457031 14.800781 173.742188 14.800781 164.253906 L 14.800781 127.9375 C 14.800781 118.449219 22.519531 110.730469 32.007812 110.730469 L 74.289062 110.730469 C 91.753906 110.730469 105.960938 96.523438 105.960938 79.058594 C 105.960938 61.59375 91.753906 47.386719 74.289062 47.386719 L 25.203125 47.386719 L 25.203125 61.851562 L 74.289062 61.851562 C 83.777344 61.851562 91.492188 69.570312 91.492188 79.058594 C 91.492188 88.546875 83.777344 96.265625 74.289062 96.265625 L 32.007812 96.265625 C 14.542969 96.265625 0.335938 110.472656 0.335938 127.9375 L 0.335938 164.253906 C 0.335938 180.347656 12.40625 193.667969 27.972656 195.660156 C 28.828125 190.699219 30.277344 185.9375 32.25 181.457031 Z M 373.417969 112.210938 L 344.15625 84.476562 C 341.917969 87.0625 338.964844 89.019531 335.546875 90.039062 L 307.582031 98.441406 C 305.617188 99.027344 305.054688 100.636719 304.902344 101.304688 C 304.75 101.960938 304.5625 103.644531 306.054688 105.011719 C 315.847656 113.945312 329.183594 127.835938 338.957031 144.589844 L 358.230469 144.589844 C 360.546875 144.589844 362.808594 145.019531 364.945312 145.863281 L 369.347656 147.597656 C 371.003906 148.253906 372.316406 147.628906 372.949219 147.199219 C 373.460938 146.851562 374.648438 145.839844 374.648438 143.984375 L 374.648438 115.050781 C 374.648438 113.976562 374.210938 112.96875 373.417969 112.210938 Z M 330.449219 307.066406 C 325.726562 305.335938 322.527344 300.84375 322.457031 295.867188 L 321.863281 263.722656 C 321.703125 255.117188 320.527344 246.625 318.371094 238.492188 C 306.09375 191.714844 263.699219 159.054688 215.273438 159.054688 L 88.636719 159.054688 C 62.65625 159.054688 41.519531 180.195312 41.519531 206.171875 L 41.519531 224.832031 C 41.519531 227.625 40.539062 230.363281 38.753906 232.542969 L 14.800781 261.085938 L 14.800781 327.339844 L 70.574219 327.339844 L 64.886719 315.980469 L 55.421875 311.042969 C 51.804688 309.140625 49.410156 305.601562 48.992188 301.566406 C 48.570312 297.527344 50.1875 293.570312 53.316406 290.984375 L 85.683594 264.328125 L 97.355469 220.152344 L 111.339844 223.847656 L 106.523438 242.085938 L 177.558594 255.667969 L 259.753906 256.414062 C 264.652344 256.449219 269.019531 259.414062 270.863281 263.96875 L 296.441406 327.34375 L 352.375 327.34375 L 347 313.03125 Z M 243.199219 307.277344 C 238.484375 305.554688 235.289062 301.054688 235.214844 296.082031 L 234.746094 270.65625 L 186.046875 270.214844 L 209.191406 327.558594 L 265.132812 327.558594 L 259.75 313.25 Z M 243.199219 307.277344 " clip-rule="nonzero"/></clipPath><linearGradient x1="-0.0000000195871" gradientTransform="matrix(1.002213, 0, 0, 1.002213, 0.336734, 47.386349)" y1="139.776993" x2="373.485983" gradientUnits="userSpaceOnUse" y2="139.776993" id="9901431e57"><stop stop-opacity="1" stop-color="rgb(74.899292%, 59.599304%, 22.698975%)" offset="0"/><stop stop-opacity="1" stop-color="rgb(75.045776%, 59.742737%, 22.846985%)" offset="0.015625"/><stop stop-opacity="1" stop-color="rgb(75.338745%, 60.029602%, 23.141479%)" offset="0.03125"/><stop stop-opacity="1" stop-color="rgb(75.63324%, 60.317993%, 23.4375%)" offset="0.046875"/><stop stop-opacity="1" stop-color="rgb(75.926208%, 60.604858%, 23.731995%)" offset="0.0625"/><stop stop-opacity="1" stop-color="rgb(76.220703%, 60.89325%, 24.028015%)" offset="0.078125"/><stop stop-opacity="1" stop-color="rgb(76.515198%, 61.180115%, 24.32251%)" offset="0.09375"/><stop stop-opacity="1" stop-color="rgb(76.808167%, 61.46698%, 24.61853%)" offset="0.109375"/><stop stop-opacity="1" stop-color="rgb(77.102661%, 61.755371%, 24.913025%)" offset="0.125"/><stop stop-opacity="1" stop-color="rgb(77.39563%, 62.042236%, 25.209045%)" offset="0.140625"/><stop stop-opacity="1" stop-color="rgb(77.690125%, 62.330627%, 25.505066%)" offset="0.15625"/><stop stop-opacity="1" stop-color="rgb(77.983093%, 62.617493%, 25.799561%)" offset="0.171875"/><stop stop-opacity="1" stop-color="rgb(78.277588%, 62.905884%, 26.095581%)" offset="0.1875"/><stop stop-opacity="1" stop-color="rgb(78.570557%, 63.192749%, 26.390076%)" offset="0.203125"/><stop stop-opacity="1" stop-color="rgb(78.865051%, 63.479614%, 26.686096%)" offset="0.21875"/><stop stop-opacity="1" stop-color="rgb(79.15802%, 63.768005%, 26.980591%)" offset="0.234375"/><stop stop-opacity="1" stop-color="rgb(79.452515%, 64.054871%, 27.276611%)" offset="0.25"/><stop stop-opacity="1" stop-color="rgb(79.745483%, 64.343262%, 27.571106%)" offset="0.265625"/><stop stop-opacity="1" stop-color="rgb(80.039978%, 64.630127%, 27.867126%)" offset="0.28125"/><stop stop-opacity="1" stop-color="rgb(80.332947%, 64.916992%, 28.161621%)" offset="0.296875"/><stop stop-opacity="1" stop-color="rgb(80.627441%, 65.205383%, 28.457642%)" offset="0.3125"/><stop stop-opacity="1" stop-color="rgb(80.92041%, 65.492249%, 28.752136%)" offset="0.328125"/><stop stop-opacity="1" stop-color="rgb(81.214905%, 65.78064%, 29.048157%)" offset="0.34375"/><stop stop-opacity="1" stop-color="rgb(81.507874%, 66.067505%, 29.342651%)" offset="0.359375"/><stop stop-opacity="1" stop-color="rgb(81.802368%, 66.355896%, 29.638672%)" offset="0.375"/><stop stop-opacity="1" stop-color="rgb(82.095337%, 66.642761%, 29.934692%)" offset="0.390625"/><stop stop-opacity="1" stop-color="rgb(82.389832%, 66.929626%, 30.229187%)" offset="0.40625"/><stop stop-opacity="1" stop-color="rgb(82.6828%, 67.218018%, 30.525208%)" offset="0.421875"/><stop stop-opacity="1" stop-color="rgb(82.977295%, 67.504883%, 30.819702%)" offset="0.4375"/><stop stop-opacity="1" stop-color="rgb(83.270264%, 67.793274%, 31.115723%)" offset="0.453125"/><stop stop-opacity="1" stop-color="rgb(83.564758%, 68.080139%, 31.410217%)" offset="0.46875"/><stop stop-opacity="1" stop-color="rgb(83.857727%, 68.367004%, 31.706238%)" offset="0.484375"/><stop stop-opacity="1" stop-color="rgb(84.152222%, 68.655396%, 32.000732%)" offset="0.5"/><stop stop-opacity="1" stop-color="rgb(84.44519%, 68.942261%, 32.296753%)" offset="0.515625"/><stop stop-opacity="1" stop-color="rgb(84.739685%, 69.230652%, 32.591248%)" offset="0.53125"/><stop stop-opacity="1" stop-color="rgb(85.032654%, 69.517517%, 32.887268%)" offset="0.546875"/><stop stop-opacity="1" stop-color="rgb(85.327148%, 69.805908%, 33.181763%)" offset="0.5625"/><stop stop-opacity="1" stop-color="rgb(85.620117%, 70.092773%, 33.477783%)" offset="0.578125"/><stop stop-opacity="1" stop-color="rgb(85.914612%, 70.379639%, 33.773804%)" offset="0.59375"/><stop stop-opacity="1" stop-color="rgb(86.207581%, 70.66803%, 34.068298%)" offset="0.609375"/><stop stop-opacity="1" stop-color="rgb(86.502075%, 70.954895%, 34.364319%)" offset="0.625"/><stop stop-opacity="1" stop-color="rgb(86.795044%, 71.243286%, 34.658813%)" offset="0.640625"/><stop stop-opacity="1" stop-color="rgb(87.089539%, 71.530151%, 34.954834%)" offset="0.65625"/><stop stop-opacity="1" stop-color="rgb(87.382507%, 71.817017%, 35.249329%)" offset="0.671875"/><stop stop-opacity="1" stop-color="rgb(87.677002%, 72.105408%, 35.545349%)" offset="0.6875"/><stop stop-opacity="1" stop-color="rgb(87.969971%, 72.392273%, 35.839844%)" offset="0.703125"/><stop stop-opacity="1" stop-color="rgb(88.264465%, 72.680664%, 36.135864%)" offset="0.71875"/><stop stop-opacity="1" stop-color="rgb(88.55896%, 72.967529%, 36.430359%)" offset="0.734375"/><stop stop-opacity="1" stop-color="rgb(88.851929%, 73.25592%, 36.726379%)" offset="0.75"/><stop stop-opacity="1" stop-color="rgb(89.146423%, 73.542786%, 37.020874%)" offset="0.765625"/><stop stop-opacity="1" stop-color="rgb(89.439392%, 73.829651%, 37.316895%)" offset="0.78125"/><stop stop-opacity="1" stop-color="rgb(89.733887%, 74.118042%, 37.612915%)" offset="0.796875"/><stop stop-opacity="1" stop-color="rgb(90.026855%, 74.404907%, 37.90741%)" offset="0.8125"/><stop stop-opacity="1" stop-color="rgb(90.32135%, 74.693298%, 38.20343%)" offset="0.828125"/><stop stop-opacity="1" stop-color="rgb(90.614319%, 74.980164%, 38.497925%)" offset="0.84375"/><stop stop-opacity="1" stop-color="rgb(90.908813%, 75.267029%, 38.793945%)" offset="0.859375"/><stop stop-opacity="1" stop-color="rgb(91.201782%, 75.55542%, 39.08844%)" offset="0.875"/><stop stop-opacity="1" stop-color="rgb(91.496277%, 75.842285%, 39.38446%)" offset="0.890625"/><stop stop-opacity="1" stop-color="rgb(91.789246%, 76.130676%, 39.678955%)" offset="0.90625"/><stop stop-opacity="1" stop-color="rgb(92.08374%, 76.417542%, 39.974976%)" offset="0.921875"/><stop stop-opacity="1" stop-color="rgb(92.376709%, 76.704407%, 40.26947%)" offset="0.9375"/><stop stop-opacity="1" stop-color="rgb(92.671204%, 76.992798%, 40.565491%)" offset="0.953125"/><stop stop-opacity="1" stop-color="rgb(92.964172%, 77.279663%, 40.859985%)" offset="0.96875"/><stop stop-opacity="1" stop-color="rgb(93.258667%, 77.568054%, 41.156006%)" offset="0.984375"/><stop stop-opacity="1" stop-color="rgb(93.551636%, 77.854919%, 41.4505%)" offset="1"/></linearGradient></defs><g clip-path="url(#ec4df13d71)"><g clip-path="url(#4ec7e7a2fe)"><path fill="url(#9901431e57)" d="M 0.335938 47.386719 L 0.335938 327.558594 L 374.648438 327.558594 L 374.648438 47.386719 Z M 0.335938 47.386719 " fill-rule="nonzero"/></g></g></svg>