<svg xmlns="http://www.w3.org/2000/svg" xmlns:xlink="http://www.w3.org/1999/xlink" width="500" zoomAndPan="magnify" viewBox="0 0 375 374.999991" height="500" preserveAspectRatio="xMidYMid meet" version="1.0"><defs><g/></defs><g fill="#ffffee" fill-opacity="1"><g transform="translate(28.554234, 204.668379)"><g><path d="M 33.078125 1.265625 C 26.148438 1.265625 20.140625 -0.535156 15.046875 -4.140625 C 9.960938 -7.742188 6.359375 -12.722656 4.234375 -19.078125 L 17.28125 -23.953125 C 18.90625 -20.421875 21.128906 -17.59375 23.953125 -15.46875 C 26.785156 -13.351562 29.96875 -12.296875 33.5 -12.296875 C 37.175781 -12.296875 40.09375 -13.070312 42.25 -14.625 C 44.40625 -16.1875 45.484375 -18.414062 45.484375 -21.3125 C 45.484375 -22.789062 45.128906 -24.09375 44.421875 -25.21875 C 43.710938 -26.351562 42.507812 -27.378906 40.8125 -28.296875 C 39.113281 -29.222656 37.609375 -29.953125 36.296875 -30.484375 C 34.992188 -31.015625 33.035156 -31.703125 30.421875 -32.546875 C 27.453125 -33.535156 25.207031 -34.3125 23.6875 -34.875 C 22.175781 -35.445312 20.179688 -36.398438 17.703125 -37.734375 C 15.234375 -39.078125 13.359375 -40.4375 12.078125 -41.8125 C 10.804688 -43.195312 9.660156 -45.035156 8.640625 -47.328125 C 7.617188 -49.628906 7.109375 -52.191406 7.109375 -55.015625 C 7.109375 -60.816406 9.367188 -65.675781 13.890625 -69.59375 C 18.410156 -73.519531 24.523438 -75.484375 32.234375 -75.484375 C 38.585938 -75.484375 43.9375 -73.890625 48.28125 -70.703125 C 52.632812 -67.523438 55.519531 -63.394531 56.9375 -58.3125 L 44.109375 -54.0625 C 41.773438 -59.289062 37.53125 -61.90625 31.375 -61.90625 C 28.269531 -61.90625 25.847656 -61.285156 24.109375 -60.046875 C 22.378906 -58.816406 21.515625 -57.070312 21.515625 -54.8125 C 21.515625 -53.320312 22.222656 -51.992188 23.640625 -50.828125 C 25.054688 -49.660156 26.503906 -48.773438 27.984375 -48.171875 C 29.472656 -47.578125 31.804688 -46.75 34.984375 -45.6875 C 37.460938 -44.84375 39.367188 -44.171875 40.703125 -43.671875 C 42.046875 -43.179688 43.882812 -42.40625 46.21875 -41.34375 C 48.550781 -40.28125 50.367188 -39.179688 51.671875 -38.046875 C 52.984375 -36.921875 54.363281 -35.5625 55.8125 -33.96875 C 57.257812 -32.382812 58.300781 -30.515625 58.9375 -28.359375 C 59.582031 -26.203125 59.90625 -23.851562 59.90625 -21.3125 C 59.90625 -14.3125 57.375 -8.796875 52.3125 -4.765625 C 47.257812 -0.742188 40.847656 1.265625 33.078125 1.265625 Z M 33.078125 1.265625 "/></g></g></g><g fill="#ffffee" fill-opacity="1"><g transform="translate(90.043227, 204.668379)"><g><path d="M 38.703125 0 L 38.703125 -3.921875 C 35.234375 -0.460938 30.566406 1.265625 24.703125 1.265625 C 18.835938 1.265625 14.046875 -0.285156 10.328125 -3.390625 C 6.617188 -6.503906 4.765625 -10.921875 4.765625 -16.640625 C 4.765625 -22.503906 6.867188 -26.957031 11.078125 -30 C 15.285156 -33.039062 20.359375 -34.5625 26.296875 -34.5625 C 31.023438 -34.5625 35.160156 -33.710938 38.703125 -32.015625 L 38.703125 -34.765625 C 38.703125 -40.492188 35.445312 -43.359375 28.9375 -43.359375 C 23 -43.359375 17.414062 -41.554688 12.1875 -37.953125 L 7.953125 -49.078125 C 14.242188 -53.328125 21.628906 -55.453125 30.109375 -55.453125 C 33.003906 -55.453125 35.566406 -55.203125 37.796875 -54.703125 C 40.023438 -54.210938 42.335938 -53.296875 44.734375 -51.953125 C 47.140625 -50.609375 48.992188 -48.46875 50.296875 -45.53125 C 51.609375 -42.601562 52.265625 -38.945312 52.265625 -34.5625 L 52.265625 0 Z M 27.359375 -10.8125 C 31.660156 -10.8125 35.441406 -12.296875 38.703125 -15.265625 L 38.703125 -21.09375 C 35.734375 -22.300781 32.375 -22.90625 28.625 -22.90625 C 25.507812 -22.90625 23 -22.390625 21.09375 -21.359375 C 19.1875 -20.335938 18.234375 -18.765625 18.234375 -16.640625 C 18.234375 -14.878906 19.023438 -13.46875 20.609375 -12.40625 C 22.203125 -11.34375 24.453125 -10.8125 27.359375 -10.8125 Z M 27.359375 -10.8125 "/></g></g></g><g fill="#ffffee" fill-opacity="1"><g transform="translate(145.489324, 204.668379)"><g><path d="M 8.484375 0 L 8.484375 -70.078125 L 22.265625 -76.546875 L 22.265625 0 Z M 8.484375 0 "/></g></g></g><g fill="#ffffee" fill-opacity="1"><g transform="translate(172.523154, 204.668379)"><g><path d="M 25.015625 -42.09375 L 25.015625 0 L 11.234375 0 L 11.234375 -42.09375 L 3.703125 -42.09375 L 3.703125 -54.171875 L 11.234375 -54.171875 L 11.234375 -62.4375 C 11.234375 -71.132812 15.6875 -75.484375 24.59375 -75.484375 C 29.1875 -75.484375 33.21875 -74.597656 36.6875 -72.828125 L 36.6875 -61.59375 C 33.644531 -62.789062 31.0625 -63.390625 28.9375 -63.390625 C 26.320312 -63.390625 25.015625 -62.15625 25.015625 -59.6875 L 25.015625 -54.171875 L 36.6875 -54.171875 L 36.6875 -42.09375 Z M 25.015625 -42.09375 "/></g></g></g><g fill="#ffffee" fill-opacity="1"><g transform="translate(207.084124, 204.668379)"><g><path d="M 48.4375 -6.25 C 43.988281 -1.238281 37.910156 1.265625 30.203125 1.265625 C 22.503906 1.265625 16.425781 -1.238281 11.96875 -6.25 C 7.519531 -11.269531 5.296875 -18.195312 5.296875 -27.03125 C 5.296875 -35.800781 7.539062 -42.726562 12.03125 -47.8125 C 16.519531 -52.90625 22.582031 -55.453125 30.21875 -55.453125 C 37.851562 -55.453125 43.910156 -52.90625 48.390625 -47.8125 C 52.878906 -42.726562 55.125 -35.800781 55.125 -27.03125 C 55.125 -18.195312 52.894531 -11.269531 48.4375 -6.25 Z M 30.21875 -11.984375 C 33.675781 -11.984375 36.394531 -13.304688 38.375 -15.953125 C 40.351562 -18.609375 41.34375 -22.300781 41.34375 -27.03125 C 41.34375 -31.769531 40.351562 -35.476562 38.375 -38.15625 C 36.394531 -40.84375 33.675781 -42.1875 30.21875 -42.1875 C 26.820312 -42.1875 24.113281 -40.828125 22.09375 -38.109375 C 20.082031 -35.390625 19.078125 -31.695312 19.078125 -27.03125 C 19.078125 -22.363281 20.082031 -18.6875 22.09375 -16 C 24.113281 -13.320312 26.820312 -11.984375 30.21875 -11.984375 Z M 30.21875 -11.984375 "/></g></g></g><g fill="#ffffee" fill-opacity="1"><g transform="translate(263.802417, 204.668379)"><g><path d="M 7.953125 0 L 7.953125 -54.171875 L 21.734375 -54.171875 L 21.734375 -49.40625 C 23.640625 -53.4375 27 -55.453125 31.8125 -55.453125 C 35.832031 -55.453125 39.503906 -54.070312 42.828125 -51.3125 L 40.921875 -38.703125 C 37.953125 -40.816406 34.664062 -41.875 31.0625 -41.875 C 24.84375 -41.875 21.734375 -37.988281 21.734375 -30.21875 L 21.734375 0 Z M 7.953125 0 "/></g></g></g><g fill="#ffffee" fill-opacity="1"><g transform="translate(304.512297, 204.668379)"><g><path d="M 27.671875 1.265625 C 20.742188 1.265625 15.28125 -1.203125 11.28125 -6.140625 C 7.289062 -11.085938 5.296875 -18.085938 5.296875 -27.140625 C 5.296875 -35.765625 7.398438 -42.640625 11.609375 -47.765625 C 15.816406 -52.890625 21.207031 -55.453125 27.78125 -55.453125 C 32.726562 -55.453125 36.578125 -53.71875 39.328125 -50.25 L 39.328125 -70.28125 L 53.109375 -76.546875 L 53.109375 0 L 39.328125 0 L 39.328125 -3.921875 C 36.992188 -0.460938 33.109375 1.265625 27.671875 1.265625 Z M 29.890625 -11.984375 C 34.128906 -11.984375 37.273438 -13.429688 39.328125 -16.328125 L 39.328125 -37.734375 C 37.140625 -40.703125 33.992188 -42.1875 29.890625 -42.1875 C 26.429688 -42.1875 23.765625 -40.894531 21.890625 -38.3125 C 20.015625 -35.738281 19.078125 -32.015625 19.078125 -27.140625 C 19.078125 -22.398438 20.015625 -18.6875 21.890625 -16 C 23.765625 -13.320312 26.429688 -11.984375 29.890625 -11.984375 Z M 29.890625 -11.984375 "/></g></g></g><g fill="#efc76a" fill-opacity="1"><g transform="translate(53.056863, 248.355173)"><g><path d="M 2.84375 0 L 2.84375 -19.890625 L 5.3125 -19.890625 L 5.3125 0 Z M 2.84375 0 "/></g></g></g><g fill="#efc76a" fill-opacity="1"><g transform="translate(62.062258, 248.355173)"><g><path d="M 11.3125 0 L 11.3125 -8.78125 C 11.3125 -10.082031 11.03125 -11.039062 10.46875 -11.65625 C 9.90625 -12.269531 9.144531 -12.578125 8.1875 -12.578125 C 5.945312 -12.578125 4.828125 -11.328125 4.828125 -8.828125 L 4.828125 0 L 2.359375 0 L 2.359375 -14.515625 L 4.828125 -14.515625 L 4.828125 -13.03125 C 5.722656 -14.25 6.972656 -14.859375 8.578125 -14.859375 C 10.285156 -14.859375 11.578125 -14.34375 12.453125 -13.3125 C 13.335938 -12.28125 13.78125 -10.625 13.78125 -8.34375 L 13.78125 0 Z M 11.3125 0 "/></g></g></g><g fill="#efc76a" fill-opacity="1"><g transform="translate(78.908198, 248.355173)"><g><path d="M 6.25 0 L 0.9375 -14.515625 L 3.4375 -14.515625 L 6.875 -4.828125 C 7.125 -4.109375 7.273438 -3.632812 7.328125 -3.40625 C 7.378906 -3.632812 7.53125 -4.109375 7.78125 -4.828125 L 11.15625 -14.515625 L 13.640625 -14.515625 L 8.328125 0 Z M 6.25 0 "/></g></g></g><g fill="#efc76a" fill-opacity="1"><g transform="translate(94.305338, 248.355173)"><g><path d="M 7.953125 0.34375 C 5.984375 0.34375 4.414062 -0.359375 3.25 -1.765625 C 2.082031 -3.179688 1.5 -5.015625 1.5 -7.265625 C 1.5 -9.640625 2.085938 -11.5 3.265625 -12.84375 C 4.441406 -14.1875 6.003906 -14.859375 7.953125 -14.859375 C 9.691406 -14.859375 11.125 -14.273438 12.25 -13.109375 C 13.382812 -11.941406 13.953125 -10.222656 13.953125 -7.953125 C 13.953125 -7.421875 13.921875 -6.875 13.859375 -6.3125 L 4.03125 -6.3125 C 4.125 -4.976562 4.535156 -3.910156 5.265625 -3.109375 C 5.992188 -2.304688 6.910156 -1.90625 8.015625 -1.90625 C 9.222656 -1.90625 10.265625 -2.335938 11.140625 -3.203125 L 12.640625 -1.53125 C 11.390625 -0.28125 9.828125 0.34375 7.953125 0.34375 Z M 4 -8.40625 L 11.453125 -8.40625 C 11.429688 -9.90625 11.070312 -10.988281 10.375 -11.65625 C 9.6875 -12.332031 8.878906 -12.671875 7.953125 -12.671875 C 6.835938 -12.671875 5.921875 -12.3125 5.203125 -11.59375 C 4.484375 -10.882812 4.082031 -9.820312 4 -8.40625 Z M 4 -8.40625 "/></g></g></g><g fill="#efc76a" fill-opacity="1"><g transform="translate(110.441082, 248.355173)"><g><path d="M 6.640625 0.34375 C 5.597656 0.34375 4.609375 0.117188 3.671875 -0.328125 C 2.734375 -0.773438 1.972656 -1.367188 1.390625 -2.109375 L 3.15625 -3.609375 C 4.226562 -2.453125 5.410156 -1.875 6.703125 -1.875 C 7.515625 -1.875 8.164062 -2.03125 8.65625 -2.34375 C 9.15625 -2.65625 9.40625 -3.113281 9.40625 -3.71875 C 9.40625 -4.175781 9.222656 -4.585938 8.859375 -4.953125 C 8.503906 -5.328125 8.132812 -5.601562 7.75 -5.78125 C 7.375 -5.957031 6.816406 -6.191406 6.078125 -6.484375 C 4.597656 -7.023438 3.476562 -7.632812 2.71875 -8.3125 C 1.96875 -9 1.59375 -9.898438 1.59375 -11.015625 C 1.59375 -12.191406 2.050781 -13.125 2.96875 -13.8125 C 3.882812 -14.507812 5.054688 -14.859375 6.484375 -14.859375 C 8.503906 -14.859375 10.128906 -14.128906 11.359375 -12.671875 L 9.65625 -11.25 C 8.769531 -12.175781 7.703125 -12.640625 6.453125 -12.640625 C 5.710938 -12.640625 5.125 -12.492188 4.6875 -12.203125 C 4.25 -11.921875 4.03125 -11.523438 4.03125 -11.015625 C 4.03125 -10.734375 4.097656 -10.472656 4.234375 -10.234375 C 4.378906 -10.003906 4.632812 -9.785156 5 -9.578125 C 5.375 -9.367188 5.671875 -9.210938 5.890625 -9.109375 C 6.109375 -9.003906 6.507812 -8.835938 7.09375 -8.609375 C 8.632812 -8.054688 9.804688 -7.429688 10.609375 -6.734375 C 11.410156 -6.035156 11.8125 -5.050781 11.8125 -3.78125 C 11.8125 -2.488281 11.347656 -1.476562 10.421875 -0.75 C 9.492188 -0.0195312 8.234375 0.34375 6.640625 0.34375 Z M 6.640625 0.34375 "/></g></g></g><g fill="#efc76a" fill-opacity="1"><g transform="translate(124.616683, 248.355173)"><g><path d="M 6.28125 0.34375 C 4.226562 0.34375 3.203125 -0.8125 3.203125 -3.125 L 3.203125 -12.359375 L 0.859375 -12.359375 L 0.859375 -14.515625 L 3.203125 -14.515625 L 3.203125 -19.3125 L 5.6875 -20.515625 L 5.6875 -14.515625 L 9.265625 -14.515625 L 9.265625 -12.359375 L 5.6875 -12.359375 L 5.6875 -3.953125 C 5.6875 -3.304688 5.789062 -2.8125 6 -2.46875 C 6.207031 -2.125 6.601562 -1.953125 7.1875 -1.953125 C 7.832031 -1.953125 8.550781 -2.210938 9.34375 -2.734375 L 9.0625 -0.3125 C 8.226562 0.125 7.300781 0.34375 6.28125 0.34375 Z M 6.28125 0.34375 "/></g></g></g><g fill="#efc76a" fill-opacity="1"><g transform="translate(136.093551, 248.355173)"><g><path d="M 19.375 0 L 19.375 -8.8125 C 19.375 -11.320312 18.398438 -12.578125 16.453125 -12.578125 C 15.523438 -12.578125 14.769531 -12.222656 14.1875 -11.515625 C 13.613281 -10.804688 13.328125 -9.875 13.328125 -8.71875 L 13.328125 0 L 10.84375 0 L 10.84375 -8.8125 C 10.84375 -11.320312 9.878906 -12.578125 7.953125 -12.578125 C 6.984375 -12.578125 6.21875 -12.238281 5.65625 -11.5625 C 5.101562 -10.894531 4.828125 -9.984375 4.828125 -8.828125 L 4.828125 0 L 2.359375 0 L 2.359375 -14.515625 L 4.828125 -14.515625 L 4.828125 -13.15625 C 5.679688 -14.289062 6.953125 -14.859375 8.640625 -14.859375 C 9.453125 -14.859375 10.203125 -14.671875 10.890625 -14.296875 C 11.585938 -13.929688 12.132812 -13.40625 12.53125 -12.71875 C 13.457031 -14.144531 14.859375 -14.859375 16.734375 -14.859375 C 18.242188 -14.859375 19.472656 -14.394531 20.421875 -13.46875 C 21.367188 -12.539062 21.84375 -11.222656 21.84375 -9.515625 L 21.84375 0 Z M 19.375 0 "/></g></g></g><g fill="#efc76a" fill-opacity="1"><g transform="translate(160.978872, 248.355173)"><g><path d="M 7.953125 0.34375 C 5.984375 0.34375 4.414062 -0.359375 3.25 -1.765625 C 2.082031 -3.179688 1.5 -5.015625 1.5 -7.265625 C 1.5 -9.640625 2.085938 -11.5 3.265625 -12.84375 C 4.441406 -14.1875 6.003906 -14.859375 7.953125 -14.859375 C 9.691406 -14.859375 11.125 -14.273438 12.25 -13.109375 C 13.382812 -11.941406 13.953125 -10.222656 13.953125 -7.953125 C 13.953125 -7.421875 13.921875 -6.875 13.859375 -6.3125 L 4.03125 -6.3125 C 4.125 -4.976562 4.535156 -3.910156 5.265625 -3.109375 C 5.992188 -2.304688 6.910156 -1.90625 8.015625 -1.90625 C 9.222656 -1.90625 10.265625 -2.335938 11.140625 -3.203125 L 12.640625 -1.53125 C 11.390625 -0.28125 9.828125 0.34375 7.953125 0.34375 Z M 4 -8.40625 L 11.453125 -8.40625 C 11.429688 -9.90625 11.070312 -10.988281 10.375 -11.65625 C 9.6875 -12.332031 8.878906 -12.671875 7.953125 -12.671875 C 6.835938 -12.671875 5.921875 -12.3125 5.203125 -11.59375 C 4.484375 -10.882812 4.082031 -9.820312 4 -8.40625 Z M 4 -8.40625 "/></g></g></g><g fill="#efc76a" fill-opacity="1"><g transform="translate(177.114616, 248.355173)"><g><path d="M 11.3125 0 L 11.3125 -8.78125 C 11.3125 -10.082031 11.03125 -11.039062 10.46875 -11.65625 C 9.90625 -12.269531 9.144531 -12.578125 8.1875 -12.578125 C 5.945312 -12.578125 4.828125 -11.328125 4.828125 -8.828125 L 4.828125 0 L 2.359375 0 L 2.359375 -14.515625 L 4.828125 -14.515625 L 4.828125 -13.03125 C 5.722656 -14.25 6.972656 -14.859375 8.578125 -14.859375 C 10.285156 -14.859375 11.578125 -14.34375 12.453125 -13.3125 C 13.335938 -12.28125 13.78125 -10.625 13.78125 -8.34375 L 13.78125 0 Z M 11.3125 0 "/></g></g></g><g fill="#efc76a" fill-opacity="1"><g transform="translate(193.960556, 248.355173)"><g><path d="M 6.28125 0.34375 C 4.226562 0.34375 3.203125 -0.8125 3.203125 -3.125 L 3.203125 -12.359375 L 0.859375 -12.359375 L 0.859375 -14.515625 L 3.203125 -14.515625 L 3.203125 -19.3125 L 5.6875 -20.515625 L 5.6875 -14.515625 L 9.265625 -14.515625 L 9.265625 -12.359375 L 5.6875 -12.359375 L 5.6875 -3.953125 C 5.6875 -3.304688 5.789062 -2.8125 6 -2.46875 C 6.207031 -2.125 6.601562 -1.953125 7.1875 -1.953125 C 7.832031 -1.953125 8.550781 -2.210938 9.34375 -2.734375 L 9.0625 -0.3125 C 8.226562 0.125 7.300781 0.34375 6.28125 0.34375 Z M 6.28125 0.34375 "/></g></g></g><g fill="#efc76a" fill-opacity="1"><g transform="translate(205.437423, 248.355173)"><g/></g></g><g fill="#efc76a" fill-opacity="1"><g transform="translate(212.965625, 248.355173)"><g><path d="M 2.78125 -19.890625 L 9.828125 -19.890625 C 12.003906 -19.890625 13.578125 -19.382812 14.546875 -18.375 C 15.523438 -17.375 16.015625 -16.125 16.015625 -14.625 C 16.015625 -13.71875 15.757812 -12.898438 15.25 -12.171875 C 14.738281 -11.441406 14.019531 -10.878906 13.09375 -10.484375 C 14.25 -10.117188 15.144531 -9.515625 15.78125 -8.671875 C 16.414062 -7.828125 16.734375 -6.835938 16.734375 -5.703125 C 16.734375 -4.984375 16.617188 -4.300781 16.390625 -3.65625 C 16.160156 -3.019531 15.804688 -2.414062 15.328125 -1.84375 C 14.859375 -1.28125 14.1875 -0.832031 13.3125 -0.5 C 12.445312 -0.164062 11.4375 0 10.28125 0 L 2.78125 0 Z M 9.34375 -11.453125 C 10.726562 -11.453125 11.78125 -11.726562 12.5 -12.28125 C 13.21875 -12.84375 13.578125 -13.613281 13.578125 -14.59375 C 13.578125 -16.625 12.375 -17.640625 9.96875 -17.640625 L 5.25 -17.640625 L 5.25 -11.453125 Z M 10.5625 -2.265625 C 11.90625 -2.265625 12.859375 -2.578125 13.421875 -3.203125 C 13.992188 -3.828125 14.28125 -4.609375 14.28125 -5.546875 C 14.28125 -7.984375 12.738281 -9.203125 9.65625 -9.203125 L 5.25 -9.203125 L 5.25 -2.265625 Z M 10.5625 -2.265625 "/></g></g></g><g fill="#efc76a" fill-opacity="1"><g transform="translate(232.453479, 248.355173)"><g><path d="M 10.6875 0 L 10.6875 -1.328125 C 9.488281 -0.210938 8.113281 0.34375 6.5625 0.34375 C 5.03125 0.34375 3.800781 -0.078125 2.875 -0.921875 C 1.957031 -1.765625 1.5 -2.972656 1.5 -4.546875 C 1.5 -6.117188 2.019531 -7.3125 3.0625 -8.125 C 4.101562 -8.9375 5.394531 -9.34375 6.9375 -9.34375 C 8.332031 -9.34375 9.582031 -9.03125 10.6875 -8.40625 L 10.6875 -9.4375 C 10.6875 -10.644531 10.414062 -11.488281 9.875 -11.96875 C 9.332031 -12.457031 8.550781 -12.703125 7.53125 -12.703125 C 6.070312 -12.703125 4.660156 -12.21875 3.296875 -11.25 L 2.578125 -13.328125 C 4.140625 -14.347656 5.894531 -14.859375 7.84375 -14.859375 C 11.289062 -14.859375 13.015625 -13.113281 13.015625 -9.625 L 13.015625 0 Z M 6.9375 -1.84375 C 8.351562 -1.84375 9.601562 -2.476562 10.6875 -3.75 L 10.6875 -6.25 C 9.644531 -6.894531 8.503906 -7.21875 7.265625 -7.21875 C 6.265625 -7.21875 5.441406 -6.988281 4.796875 -6.53125 C 4.148438 -6.082031 3.828125 -5.421875 3.828125 -4.546875 C 3.828125 -3.734375 4.097656 -3.078125 4.640625 -2.578125 C 5.179688 -2.085938 5.945312 -1.84375 6.9375 -1.84375 Z M 6.9375 -1.84375 "/></g></g></g><g fill="#efc76a" fill-opacity="1"><g transform="translate(248.248323, 248.355173)"><g><path d="M 11.3125 0 L 11.3125 -8.78125 C 11.3125 -10.082031 11.03125 -11.039062 10.46875 -11.65625 C 9.90625 -12.269531 9.144531 -12.578125 8.1875 -12.578125 C 5.945312 -12.578125 4.828125 -11.328125 4.828125 -8.828125 L 4.828125 0 L 2.359375 0 L 2.359375 -14.515625 L 4.828125 -14.515625 L 4.828125 -13.03125 C 5.722656 -14.25 6.972656 -14.859375 8.578125 -14.859375 C 10.285156 -14.859375 11.578125 -14.34375 12.453125 -13.3125 C 13.335938 -12.28125 13.78125 -10.625 13.78125 -8.34375 L 13.78125 0 Z M 11.3125 0 "/></g></g></g><g fill="#efc76a" fill-opacity="1"><g transform="translate(265.094263, 248.355173)"><g><path d="M 14.140625 0 L 11.453125 0 L 6.953125 -8.78125 L 4.828125 -6.5625 L 4.828125 0 L 2.359375 0 L 2.359375 -19.34375 L 4.828125 -20.515625 L 4.828125 -9.515625 L 9.546875 -14.515625 L 12.5 -14.515625 L 8.6875 -10.5625 Z M 14.140625 0 "/></g></g></g><g fill="#efc76a" fill-opacity="1"><g transform="translate(281.031155, 248.355173)"><g><path d="M 4.71875 -17.59375 C 4.414062 -17.300781 4.046875 -17.15625 3.609375 -17.15625 C 3.171875 -17.15625 2.804688 -17.304688 2.515625 -17.609375 C 2.222656 -17.910156 2.078125 -18.269531 2.078125 -18.6875 C 2.078125 -19.125 2.226562 -19.5 2.53125 -19.8125 C 2.832031 -20.125 3.191406 -20.28125 3.609375 -20.28125 C 4.046875 -20.28125 4.414062 -20.125 4.71875 -19.8125 C 5.019531 -19.5 5.171875 -19.125 5.171875 -18.6875 C 5.171875 -18.25 5.019531 -17.882812 4.71875 -17.59375 Z M 2.390625 0 L 2.390625 -14.515625 L 4.859375 -14.515625 L 4.859375 0 Z M 2.390625 0 "/></g></g></g><g fill="#efc76a" fill-opacity="1"><g transform="translate(289.099094, 248.355173)"><g><path d="M 11.3125 0 L 11.3125 -8.78125 C 11.3125 -10.082031 11.03125 -11.039062 10.46875 -11.65625 C 9.90625 -12.269531 9.144531 -12.578125 8.1875 -12.578125 C 5.945312 -12.578125 4.828125 -11.328125 4.828125 -8.828125 L 4.828125 0 L 2.359375 0 L 2.359375 -14.515625 L 4.828125 -14.515625 L 4.828125 -13.03125 C 5.722656 -14.25 6.972656 -14.859375 8.578125 -14.859375 C 10.285156 -14.859375 11.578125 -14.34375 12.453125 -13.3125 C 13.335938 -12.28125 13.78125 -10.625 13.78125 -8.34375 L 13.78125 0 Z M 11.3125 0 "/></g></g></g><g fill="#efc76a" fill-opacity="1"><g transform="translate(305.945033, 248.355173)"><g><path d="M 6.8125 5.875 L 5.625 3.953125 C 7.726562 3.835938 9.179688 3.472656 9.984375 2.859375 C 10.785156 2.242188 11.1875 1.40625 11.1875 0.34375 L 11.1875 -1.421875 C 10.332031 -0.242188 9.082031 0.34375 7.4375 0.34375 C 5.738281 0.34375 4.320312 -0.316406 3.1875 -1.640625 C 2.0625 -2.972656 1.5 -4.847656 1.5 -7.265625 C 1.5 -9.617188 2.050781 -11.472656 3.15625 -12.828125 C 4.269531 -14.179688 5.726562 -14.859375 7.53125 -14.859375 C 9.039062 -14.859375 10.257812 -14.347656 11.1875 -13.328125 L 11.1875 -14.515625 L 13.65625 -14.515625 L 13.65625 -0.59375 C 13.65625 1.625 13.0625 3.222656 11.875 4.203125 C 10.695312 5.191406 9.007812 5.75 6.8125 5.875 Z M 7.953125 -1.953125 C 8.554688 -1.953125 9.15625 -2.132812 9.75 -2.5 C 10.351562 -2.875 10.832031 -3.375 11.1875 -4 L 11.1875 -10.65625 C 10.851562 -11.21875 10.375 -11.675781 9.75 -12.03125 C 9.125 -12.394531 8.523438 -12.578125 7.953125 -12.578125 C 6.660156 -12.578125 5.675781 -12.117188 5 -11.203125 C 4.332031 -10.285156 4 -8.972656 4 -7.265625 C 4 -5.617188 4.363281 -4.320312 5.09375 -3.375 C 5.820312 -2.425781 6.773438 -1.953125 7.953125 -1.953125 Z M 7.953125 -1.953125 "/></g></g></g></svg>